<svg xmlns="http://www.w3.org/2000/svg" version="1.1" xmlns:xlink="http://www.w3.org/1999/xlink" xmlns:svgjs="http://svgjs.dev/svgjs" width="1500" height="1500" viewBox="0 0 1500 1500"><rect width="1500" height="1500" fill="#ffffff"></rect><g transform="matrix(0.6666666666666666,0,0,0.6666666666666666,249.39393939393938,667.0444685354004)"><svg viewBox="0 0 396 65" data-background-color="#ffffff" preserveAspectRatio="xMidYMid meet" height="246" width="1500" xmlns="http://www.w3.org/2000/svg" xmlns:xlink="http://www.w3.org/1999/xlink"><g id="tight-bounds" transform="matrix(1,0,0,1,0.2400000000000091,0.3787167390181594)"><svg viewBox="0 0 395.52 64.24256652196367" height="64.24256652196367" width="395.52"><g><svg viewBox="0 0 497.5385817230547 80.81299411808959" height="64.24256652196367" width="395.52"><g><rect width="4.049240693495607" height="80.81299411808959" x="87.36923450208369" y="0" fill="#000000" opacity="1" stroke-width="0" stroke="transparent" fill-opacity="1" class="rect-yte-0" data-fill-palette-color="primary" rx="1%" id="yte-0" data-palette-color="#131313"></rect></g><g transform="matrix(1,0,0,1,102.0185817230547,0.20102734855245785)"><svg viewBox="0 0 395.52 80.41093942098468" height="80.41093942098468" width="395.52"><g id="textblocktransform"><svg viewBox="0 0 395.52 80.41093942098468" height="80.41093942098468" width="395.52" id="textblock"><g><svg viewBox="0 0 395.52 44.90124590163934" height="44.90124590163934" width="395.52"><g transform="matrix(1,0,0,1,0,0)"><svg width="395.52" viewBox="0.73 -33.28 297.83 33.82" height="44.90124590163934" data-palette-color="#131313"><path d="M26.98-28.98Q27.81-28.98 28.16-28.6 28.52-28.22 28.52-27.32L28.52-27.32Q28.52-26.42 28.16-26.04 27.81-25.66 26.98-25.66L26.98-25.66 25.76-25.66 26.39-3.32 27.71-3.32Q28.54-3.32 28.89-2.94 29.25-2.56 29.25-1.66L29.25-1.66Q29.25-0.76 28.89-0.38 28.54 0 27.71 0L27.71 0 20.04 0Q19.21 0 18.86-0.38 18.51-0.76 18.51-1.66L18.51-1.66Q18.51-2.56 18.86-2.94 19.21-3.32 20.04-3.32L20.04-3.32 22.75-3.32 22.22-23.32 17.24-9.4Q16.92-8.54 16.39-8.18 15.87-7.81 14.99-7.81L14.99-7.81Q14.11-7.81 13.59-8.18 13.06-8.54 12.74-9.4L12.74-9.4 7.74-23.32 7.23-3.32 9.94-3.32Q10.77-3.32 11.12-2.94 11.47-2.56 11.47-1.66L11.47-1.66Q11.47-0.76 11.12-0.38 10.77 0 9.94 0L9.94 0 2.27 0Q1.44 0 1.09-0.38 0.73-0.76 0.73-1.66L0.73-1.66Q0.73-2.56 1.09-2.94 1.44-3.32 2.27-3.32L2.27-3.32 3.59-3.32 4.2-25.66 3-25.66Q2.17-25.66 1.82-26.04 1.46-26.42 1.46-27.32L1.46-27.32Q1.46-28.22 1.82-28.6 2.17-28.98 3-28.98L3-28.98 8.15-28.98Q8.74-28.98 9.08-28.78 9.42-28.59 9.57-28.17L9.57-28.17 14.99-13.31 20.39-28.17Q20.65-28.98 21.83-28.98L21.83-28.98 26.98-28.98ZM46.99-28.98Q47.82-28.98 48.18-28.6 48.53-28.22 48.53-27.32L48.53-27.32Q48.53-26.42 48.18-26.04 47.82-25.66 46.99-25.66L46.99-25.66 41.09-25.66 41.09-3.32 53.17-3.32 53.17-11.35Q53.17-12.21 53.59-12.57 54-12.94 55-12.94L55-12.94Q56-12.94 56.42-12.57 56.83-12.21 56.83-11.35L56.83-11.35 56.83-1.66Q56.83-0.76 56.48-0.38 56.13 0 55.3 0L55.3 0 33.47 0Q32.64 0 32.29-0.38 31.93-0.76 31.93-1.66L31.93-1.66Q31.93-2.56 32.29-2.94 32.64-3.32 33.47-3.32L33.47-3.32 37.42-3.32 37.42-25.66 33.47-25.66Q32.64-25.66 32.29-26.04 31.93-26.42 31.93-27.32L31.93-27.32Q31.93-28.22 32.29-28.6 32.64-28.98 33.47-28.98L33.47-28.98 46.99-28.98ZM112.96-29.52Q113.96-29.52 114.37-29.15 114.79-28.78 114.79-27.93L114.79-27.93 114.79-22.31Q114.79-21.46 114.37-21.09 113.96-20.73 112.96-20.73L112.96-20.73Q112.03-20.73 111.69-21.36L111.69-21.36Q110.51-23.58 108.39-24.74 106.27-25.9 103.56-25.9L103.56-25.9Q100.87-25.9 99.39-24.66 97.92-23.41 97.92-21.31L97.92-21.31Q97.92-20.31 98.43-19.63 98.94-18.95 99.89-18.46L99.89-18.46Q100.75-18.02 101.9-17.74 103.04-17.46 104.97-17.09L104.97-17.09Q107.07-16.67 108.31-16.39 109.54-16.11 110.73-15.63L110.73-15.63Q113.18-14.62 114.56-12.83 115.93-11.04 115.93-7.98L115.93-7.98Q115.93-5.44 114.74-3.53 113.54-1.61 111.21-0.54 108.88 0.54 105.61 0.54L105.61 0.54Q103.17 0.54 101.08-0.35 98.99-1.25 97.45-2.95L97.45-2.95 97.45-1.05Q97.45-0.2 97.04 0.17 96.62 0.54 95.62 0.54L95.62 0.54Q94.62 0.54 94.21 0.17 93.79-0.2 93.79-1.05L93.79-1.05 93.79-8.37Q93.79-9.23 94.21-9.59 94.62-9.96 95.62-9.96L95.62-9.96Q96.67-9.96 97.04-8.94L97.04-8.94Q98.04-6.1 100.22-4.59 102.41-3.08 105.61-3.08L105.61-3.08Q108.73-3.08 110.41-4.42 112.08-5.76 112.08-7.98L112.08-7.98Q112.08-9.52 111.31-10.49 110.54-11.45 109.07-12.08L109.07-12.08Q108.15-12.5 107.05-12.76 105.95-13.01 104.05-13.4L104.05-13.4Q102.04-13.79 100.69-14.14 99.33-14.48 98.19-14.99L98.19-14.99Q96.23-15.87 95.15-17.37 94.06-18.87 94.06-21.31L94.06-21.31Q94.06-23.83 95.27-25.68 96.48-27.54 98.64-28.53 100.8-29.52 103.56-29.52L103.56-29.52Q105.71-29.52 107.71-28.69 109.71-27.86 111.13-26.44L111.13-26.44 111.13-27.93Q111.13-28.78 111.54-29.15 111.96-29.52 112.96-29.52L112.96-29.52ZM131.09-29.52Q132.09-29.52 132.51-29.15 132.92-28.78 132.92-27.93L132.92-27.93 132.92-20.61 142.96-20.61Q143.79-20.61 144.14-20.23 144.5-19.85 144.5-18.95L144.5-18.95Q144.5-18.04 144.14-17.66 143.79-17.29 142.96-17.29L142.96-17.29 132.92-17.29 132.92-8.4Q132.92-5.62 133.89-4.32 134.85-3.03 137.25-3.03L137.25-3.03Q138.88-3.03 140.69-3.69 142.49-4.35 144.18-5.44L144.18-5.44Q144.52-5.69 144.94-5.69L144.94-5.69Q145.77-5.69 146.35-4.57L146.35-4.57Q146.67-3.93 146.67-3.47L146.67-3.47Q146.67-2.69 145.86-2.2L145.86-2.2Q143.96-1 141.62-0.23 139.27 0.54 137.25 0.54L137.25 0.54Q133.1 0.54 131.18-1.62 129.26-3.78 129.26-8.08L129.26-8.08 129.26-17.29 124.31-17.29Q123.48-17.29 123.12-17.66 122.77-18.04 122.77-18.95L122.77-18.95Q122.77-19.85 123.12-20.23 123.48-20.61 124.31-20.61L124.31-20.61 129.26-20.61 129.26-27.93Q129.26-28.78 129.68-29.15 130.09-29.52 131.09-29.52L131.09-29.52ZM172.74-22.56Q173.57-22.56 173.93-22.18 174.28-21.8 174.28-20.9L174.28-20.9 174.28-3.32 176.28-3.32Q177.11-3.32 177.47-2.94 177.82-2.56 177.82-1.66L177.82-1.66Q177.82-0.76 177.47-0.38 177.11 0 176.28 0L176.28 0 172.4 0Q171.57 0 171.22-0.37 170.86-0.73 170.86-1.64L170.86-1.64 170.86-4.59Q169.25-2.1 167.09-0.78 164.93 0.54 162.44 0.54L162.44 0.54Q160.22 0.54 158.58-0.43 156.95-1.39 156.07-3.2 155.19-5 155.19-7.42L155.19-7.42 155.19-19.24 153.19-19.24Q152.36-19.24 152-19.62 151.65-20 151.65-20.9L151.65-20.9Q151.65-21.8 152-22.18 152.36-22.56 153.19-22.56L153.19-22.56 157.31-22.56Q158.14-22.56 158.5-22.18 158.85-21.8 158.85-20.9L158.85-20.9 158.85-7.79Q158.85-5.62 159.85-4.35 160.85-3.08 162.8-3.08L162.8-3.08Q164.88-3.08 166.67-4.27 168.47-5.47 169.54-7.57 170.62-9.67 170.62-12.26L170.62-12.26 170.62-19.24 167.15-19.24Q166.32-19.24 165.97-19.62 165.61-20 165.61-20.9L165.61-20.9Q165.61-21.8 165.97-22.18 166.32-22.56 167.15-22.56L167.15-22.56 172.74-22.56ZM203.38-32.03Q204.21-32.03 204.56-31.65 204.92-31.27 204.92-30.37L204.92-30.37 204.92-3.32 206.92-3.32Q207.75-3.32 208.1-2.94 208.46-2.56 208.46-1.66L208.46-1.66Q208.46-0.76 208.1-0.38 207.75 0 206.92 0L206.92 0 203.04 0Q202.21 0 201.85-0.38 201.5-0.76 201.5-1.66L201.5-1.66 201.5-3.61Q199.96-1.61 197.93-0.54 195.91 0.54 193.52 0.54L193.52 0.54Q190.49 0.54 188.1-0.89 185.7-2.32 184.34-4.99 182.97-7.67 182.97-11.28L182.97-11.28Q182.97-14.89 184.34-17.57 185.7-20.24 188.1-21.67 190.49-23.1 193.52-23.1L193.52-23.1Q198.11-23.1 201.25-19.07L201.25-19.07 201.25-28.71 197.3-28.71Q196.47-28.71 196.12-29.09 195.76-29.47 195.76-30.37L195.76-30.37Q195.76-31.27 196.12-31.65 196.47-32.03 197.3-32.03L197.3-32.03 203.38-32.03ZM193.76-19.48Q191.59-19.48 190.02-18.44 188.46-17.41 187.64-15.55 186.83-13.7 186.83-11.28L186.83-11.28Q186.83-8.86 187.64-7.01 188.46-5.15 190.02-4.11 191.59-3.08 193.76-3.08L193.76-3.08Q195.93-3.08 197.63-4.05 199.33-5.03 200.29-6.88 201.25-8.74 201.25-11.28L201.25-11.28Q201.25-13.82 200.29-15.67 199.33-17.53 197.63-18.51 195.93-19.48 193.76-19.48L193.76-19.48ZM225.71-22.56Q226.55-22.56 226.9-22.18 227.25-21.8 227.25-20.9L227.25-20.9 227.25-3.32 235.09-3.32Q235.92-3.32 236.27-2.94 236.63-2.56 236.63-1.66L236.63-1.66Q236.63-0.76 236.27-0.38 235.92 0 235.09 0L235.09 0 215.95 0Q215.12 0 214.77-0.38 214.41-0.76 214.41-1.66L214.41-1.66Q214.41-2.56 214.77-2.94 215.12-3.32 215.95-3.32L215.95-3.32 223.59-3.32 223.59-19.24 217.41-19.24Q216.58-19.24 216.23-19.62 215.88-20 215.88-20.9L215.88-20.9Q215.88-21.8 216.23-22.18 216.58-22.56 217.41-22.56L217.41-22.56 225.71-22.56ZM224.93-33.28Q226.28-33.28 226.76-32.92 227.25-32.57 227.25-31.69L227.25-31.69 227.25-28.52Q227.25-27.64 226.76-27.28 226.28-26.93 224.93-26.93L224.93-26.93Q223.59-26.93 223.1-27.28 222.61-27.64 222.61-28.52L222.61-28.52 222.61-31.69Q222.61-32.57 223.1-32.92 223.59-33.28 224.93-33.28L224.93-33.28ZM254.81-23.1Q258.16-23.1 260.84-21.58 263.53-20.07 265.06-17.37 266.58-14.67 266.58-11.28L266.58-11.28Q266.58-7.89 265.06-5.19 263.53-2.49 260.84-0.98 258.16 0.54 254.81 0.54L254.81 0.54Q251.47 0.54 248.78-0.98 246.1-2.49 244.57-5.19 243.05-7.89 243.05-11.28L243.05-11.28Q243.05-14.67 244.57-17.37 246.1-20.07 248.78-21.58 251.47-23.1 254.81-23.1L254.81-23.1ZM254.81-19.48Q252.45-19.48 250.65-18.44 248.86-17.41 247.88-15.54 246.9-13.67 246.9-11.28L246.9-11.28Q246.9-8.89 247.88-7.02 248.86-5.15 250.65-4.11 252.45-3.08 254.81-3.08L254.81-3.08Q257.18-3.08 258.98-4.11 260.77-5.15 261.75-7.02 262.72-8.89 262.72-11.28L262.72-11.28Q262.72-13.67 261.75-15.54 260.77-17.41 258.98-18.44 257.18-19.48 254.81-19.48L254.81-19.48ZM296.29-28.98Q297.12-28.98 297.48-28.6 297.83-28.22 297.83-27.32L297.83-27.32Q297.83-26.42 297.48-26.04 297.12-25.66 296.29-25.66L296.29-25.66 294.7-25.66 287.16-15.06 295.61-3.32 297.02-3.32Q297.85-3.32 298.21-2.94 298.56-2.56 298.56-1.66L298.56-1.66Q298.56-0.76 298.21-0.38 297.85 0 297.02 0L297.02 0 288.38 0Q287.55 0 287.2-0.38 286.84-0.76 286.84-1.66L286.84-1.66Q286.84-2.56 287.2-2.94 287.55-3.32 288.38-3.32L288.38-3.32 291.04-3.32 284.82-12.23 278.44-3.32 280.47-3.32Q281.3-3.32 281.65-2.94 282.01-2.56 282.01-1.66L282.01-1.66Q282.01-0.76 281.65-0.38 281.3 0 280.47 0L280.47 0 272.56 0Q271.73 0 271.38-0.38 271.02-0.76 271.02-1.66L271.02-1.66Q271.02-2.56 271.38-2.94 271.73-3.32 272.56-3.32L272.56-3.32 274.07-3.32 282.59-15.11 274.98-25.66 273.29-25.66Q272.46-25.66 272.11-26.04 271.75-26.42 271.75-27.32L271.75-27.32Q271.75-28.22 272.11-28.6 272.46-28.98 273.29-28.98L273.29-28.98 281.69-28.98Q282.52-28.98 282.88-28.6 283.23-28.22 283.23-27.32L283.23-27.32Q283.23-26.42 282.88-26.04 282.52-25.66 281.69-25.66L281.69-25.66 279.52-25.66 284.91-17.94 290.33-25.66 288.87-25.66Q288.04-25.66 287.69-26.04 287.33-26.42 287.33-27.32L287.33-27.32Q287.33-28.22 287.69-28.6 288.04-28.98 288.87-28.98L288.87-28.98 296.29-28.98Z" opacity="1" transform="matrix(1,0,0,1,0,0)" fill="#000000" class="wordmark-text-0" data-fill-palette-color="primary" id="text-0"></path></svg></g></svg></g><g transform="matrix(1,0,0,1,0,55.50135242911475)"><svg viewBox="0 0 232.209792 24.909586991869915" height="24.909586991869915" width="232.209792"><g transform="matrix(1,0,0,1,0,0)"><svg width="232.209792" viewBox="0.15 -35.95 442.75 47.5" height="24.909586991869915" data-palette-color="#131313"><path d="M12.3 0L10 0 10-13.35 0.15-32.95 2.6-32.95 7.6-22.65Q8.45-20.85 9.28-19.1 10.1-17.35 11.1-15.55L11.1-15.55 11.3-15.55Q12.25-17.35 13.15-19.1 14.05-20.85 14.85-22.65L14.85-22.65 19.85-32.95 22.2-32.95 12.3-13.35 12.3 0ZM34.05 0.6L34.05 0.6Q31.9 0.6 29.95-0.25 28-1.1 26.52-2.7 25.05-4.3 24.17-6.63 23.3-8.95 23.3-11.95L23.3-11.95Q23.3-14.95 24.17-17.32 25.05-19.7 26.52-21.3 28-22.9 29.95-23.75 31.9-24.6 34.05-24.6L34.05-24.6Q36.2-24.6 38.17-23.75 40.15-22.9 41.62-21.3 43.1-19.7 43.97-17.32 44.85-14.95 44.85-11.95L44.85-11.95Q44.85-8.95 43.97-6.63 43.1-4.3 41.62-2.7 40.15-1.1 38.17-0.25 36.2 0.6 34.05 0.6ZM34.05-1.35L34.05-1.35Q35.85-1.35 37.42-2.13 39-2.9 40.12-4.3 41.25-5.7 41.9-7.65 42.55-9.6 42.55-11.95L42.55-11.95Q42.55-14.35 41.9-16.3 41.25-18.25 40.12-19.68 39-21.1 37.42-21.88 35.85-22.65 34.05-22.65L34.05-22.65Q32.25-22.65 30.7-21.88 29.15-21.1 28.02-19.68 26.9-18.25 26.25-16.3 25.6-14.35 25.6-11.95L25.6-11.95Q25.6-9.6 26.25-7.65 26.9-5.7 28.02-4.3 29.15-2.9 30.7-2.13 32.25-1.35 34.05-1.35ZM58.95 0.6L58.95 0.6Q55.2 0.6 53.45-1.65 51.7-3.9 51.7-8.6L51.7-8.6 51.7-24 53.9-24 53.9-8.9Q53.9-5.05 55.17-3.23 56.45-1.4 59.35-1.4L59.35-1.4Q61.5-1.4 63.25-2.58 65-3.75 67.1-6.3L67.1-6.3 67.1-24 69.3-24 69.3 0 67.45 0 67.2-4 67.1-4Q65.35-1.9 63.4-0.65 61.45 0.6 58.95 0.6ZM80.69 0L78.49 0 78.49-24 80.39-24 80.59-19.55 80.74-19.55Q81.94-21.8 83.67-23.2 85.39-24.6 87.54-24.6L87.54-24.6Q88.24-24.6 88.79-24.5 89.34-24.4 89.94-24.1L89.94-24.1 89.44-22.1Q88.84-22.35 88.39-22.43 87.94-22.5 87.24-22.5L87.24-22.5Q85.64-22.5 83.87-21.13 82.09-19.75 80.69-16.35L80.69-16.35 80.69 0ZM112.29 0L104.59 0 104.59-32.95 112.24-32.95Q116.04-32.95 118.86-31.8 121.69-30.65 123.54-28.5 125.39-26.35 126.29-23.35 127.19-20.35 127.19-16.6L127.19-16.6Q127.19-12.85 126.29-9.78 125.39-6.7 123.54-4.53 121.69-2.35 118.89-1.18 116.09 0 112.29 0L112.29 0ZM106.89-31L106.89-1.95 111.99-1.95Q115.34-1.95 117.76-3.03 120.19-4.1 121.74-6.05 123.29-8 124.04-10.68 124.79-13.35 124.79-16.6L124.79-16.6Q124.79-19.8 124.04-22.45 123.29-25.1 121.74-27 120.19-28.9 117.76-29.95 115.34-31 111.99-31L111.99-31 106.89-31ZM139.78 0.6L139.78 0.6Q138.34 0.6 137.09 0.2 135.84-0.2 134.88-1 133.94-1.8 133.38-3.05 132.84-4.3 132.84-6L132.84-6Q132.84-10 136.56-12.08 140.28-14.15 148.34-15.05L148.34-15.05Q148.34-16.4 148.13-17.78 147.94-19.15 147.28-20.23 146.63-21.3 145.53-21.98 144.44-22.65 142.63-22.65L142.63-22.65Q140.24-22.65 138.24-21.7 136.24-20.75 134.99-19.85L134.99-19.85 133.99-21.5Q134.63-21.95 135.56-22.5 136.49-23.05 137.63-23.5 138.78-23.95 140.13-24.28 141.49-24.6 142.94-24.6L142.94-24.6Q145.03-24.6 146.49-23.88 147.94-23.15 148.84-21.9 149.74-20.65 150.13-18.98 150.53-17.3 150.53-15.35L150.53-15.35 150.53 0 148.63 0 148.44-3.1 148.28-3.1Q146.44-1.65 144.31-0.53 142.19 0.6 139.78 0.6ZM140.19-1.3L140.19-1.3Q142.28-1.3 144.19-2.3 146.09-3.3 148.34-5.2L148.34-5.2 148.34-13.35Q144.63-12.9 142.09-12.25 139.53-11.6 137.99-10.7 136.44-9.8 135.76-8.65 135.09-7.5 135.09-6.1L135.09-6.1Q135.09-4.8 135.49-3.9 135.88-3 136.59-2.43 137.28-1.85 138.21-1.58 139.13-1.3 140.19-1.3ZM165.08 0.6L165.08 0.6Q163.33 0.6 162.18 0.08 161.03-0.45 160.33-1.4 159.63-2.35 159.36-3.7 159.08-5.05 159.08-6.65L159.08-6.65 159.08-22.1 155.33-22.1 155.33-23.8 159.13-24 159.43-30.95 161.33-30.95 161.33-24 168.28-24 168.28-22.1 161.33-22.1 161.33-6.45Q161.33-5.3 161.51-4.38 161.68-3.45 162.13-2.78 162.58-2.1 163.36-1.73 164.13-1.35 165.38-1.35L165.38-1.35Q166.08-1.35 166.91-1.58 167.73-1.8 168.38-2.1L168.38-2.1 168.98-0.3Q167.93 0.1 166.88 0.35 165.83 0.6 165.08 0.6ZM178.28 0.6L178.28 0.6Q176.83 0.6 175.58 0.2 174.33-0.2 173.38-1 172.43-1.8 171.88-3.05 171.33-4.3 171.33-6L171.33-6Q171.33-10 175.06-12.08 178.78-14.15 186.83-15.05L186.83-15.05Q186.83-16.4 186.63-17.78 186.43-19.15 185.78-20.23 185.13-21.3 184.03-21.98 182.93-22.65 181.13-22.65L181.13-22.65Q178.73-22.65 176.73-21.7 174.73-20.75 173.48-19.85L173.48-19.85 172.48-21.5Q173.13-21.95 174.06-22.5 174.98-23.05 176.13-23.5 177.28-23.95 178.63-24.28 179.98-24.6 181.43-24.6L181.43-24.6Q183.53-24.6 184.98-23.88 186.43-23.15 187.33-21.9 188.23-20.65 188.63-18.98 189.03-17.3 189.03-15.35L189.03-15.35 189.03 0 187.13 0 186.93-3.1 186.78-3.1Q184.93-1.65 182.81-0.53 180.68 0.6 178.28 0.6ZM178.68-1.3L178.68-1.3Q180.78-1.3 182.68-2.3 184.58-3.3 186.83-5.2L186.83-5.2 186.83-13.35Q183.13-12.9 180.58-12.25 178.03-11.6 176.48-10.7 174.93-9.8 174.25-8.65 173.58-7.5 173.58-6.1L173.58-6.1Q173.58-4.8 173.98-3.9 174.38-3 175.08-2.43 175.78-1.85 176.71-1.58 177.63-1.3 178.68-1.3ZM210.13 0L207.83 0 207.83-32.95 216.13-32.95Q218.93-32.95 221.15-32.48 223.38-32 224.9-30.9 226.43-29.8 227.25-28.05 228.08-26.3 228.08-23.75L228.08-23.75Q228.08-18.9 224.98-16.53 221.88-14.15 216.33-14.15L216.33-14.15 210.13-14.15 210.13 0ZM210.13-31L210.13-16.1 215.78-16.1Q220.83-16.1 223.28-17.9 225.73-19.7 225.73-23.75L225.73-23.75Q225.73-27.9 223.2-29.45 220.68-31 215.58-31L215.58-31 210.13-31ZM237.97 0.6L237.97 0.6Q235.02 0.6 235.02-3.2L235.02-3.2 235.02-35.95 237.22-35.95 237.22-2.9Q237.22-2.1 237.52-1.73 237.82-1.35 238.27-1.35L238.27-1.35Q238.42-1.35 238.6-1.35 238.77-1.35 239.17-1.45L239.17-1.45 239.57 0.35Q239.22 0.45 238.87 0.53 238.52 0.6 237.97 0.6ZM252.12 0.6L252.12 0.6Q250.67 0.6 249.42 0.2 248.17-0.2 247.22-1 246.27-1.8 245.72-3.05 245.17-4.3 245.17-6L245.17-6Q245.17-10 248.9-12.08 252.62-14.15 260.67-15.05L260.67-15.05Q260.67-16.4 260.47-17.78 260.27-19.15 259.62-20.23 258.97-21.3 257.87-21.98 256.77-22.65 254.97-22.65L254.97-22.65Q252.57-22.65 250.57-21.7 248.57-20.75 247.32-19.85L247.32-19.85 246.32-21.5Q246.97-21.95 247.9-22.5 248.82-23.05 249.97-23.5 251.12-23.95 252.47-24.28 253.82-24.6 255.27-24.6L255.27-24.6Q257.37-24.6 258.82-23.88 260.27-23.15 261.17-21.9 262.07-20.65 262.47-18.98 262.87-17.3 262.87-15.35L262.87-15.35 262.87 0 260.97 0 260.77-3.1 260.62-3.1Q258.77-1.65 256.64-0.53 254.52 0.6 252.12 0.6ZM252.52-1.3L252.52-1.3Q254.62-1.3 256.52-2.3 258.42-3.3 260.67-5.2L260.67-5.2 260.67-13.35Q256.97-12.9 254.42-12.25 251.87-11.6 250.32-10.7 248.77-9.8 248.09-8.65 247.42-7.5 247.42-6.1L247.42-6.1Q247.42-4.8 247.82-3.9 248.22-3 248.92-2.43 249.62-1.85 250.55-1.58 251.47-1.3 252.52-1.3ZM270.47 10.95L270.47 10.95Q269.12 10.95 268.02 10.45L268.02 10.45 268.52 8.5Q268.92 8.65 269.42 8.78 269.92 8.9 270.47 8.9L270.47 8.9Q272.72 8.9 274.22 7.1 275.72 5.3 276.62 2.55L276.62 2.55 277.27 0.45 267.42-24 269.82-24 275.62-8.9Q276.17-7.4 276.84-5.6 277.52-3.8 278.22-2.2L278.22-2.2 278.42-2.2Q278.97-3.8 279.54-5.6 280.12-7.4 280.62-8.9L280.62-8.9 285.77-24 288.02-24 278.52 3Q278.02 4.5 277.29 5.95 276.57 7.4 275.59 8.5 274.62 9.6 273.34 10.28 272.07 10.95 270.47 10.95ZM301.06 11.55L301.06 11.55Q296.51 11.55 293.87 9.75 291.22 7.95 291.22 4.9L291.22 4.9Q291.22 3.3 292.17 1.8 293.12 0.3 294.76-0.9L294.76-0.9 294.76-1.1Q293.87-1.65 293.26-2.6 292.67-3.55 292.67-4.95L292.67-4.95Q292.67-6.55 293.56-7.68 294.47-8.8 295.26-9.35L295.26-9.35 295.26-9.55Q294.12-10.55 293.19-12.25 292.26-13.95 292.26-16.15L292.26-16.15Q292.26-18 292.92-19.55 293.56-21.1 294.72-22.23 295.87-23.35 297.42-23.98 298.97-24.6 300.72-24.6L300.72-24.6Q301.72-24.6 302.51-24.43 303.31-24.25 303.87-24L303.87-24 312.01-24 312.01-22.15 306.42-22.15Q307.56-21.15 308.31-19.58 309.06-18 309.06-16.1L309.06-16.1Q309.06-14.25 308.42-12.7 307.76-11.15 306.64-10.03 305.51-8.9 303.99-8.28 302.47-7.65 300.72-7.65L300.72-7.65Q299.72-7.65 298.64-7.9 297.56-8.15 296.72-8.65L296.72-8.65Q295.92-8 295.34-7.2 294.76-6.4 294.76-5.2L294.76-5.2Q294.76-3.9 295.72-2.98 296.67-2.05 299.37-2.05L299.37-2.05 304.51-2.05Q308.56-2.05 310.49-0.73 312.42 0.6 312.42 3.45L312.42 3.45Q312.42 5 311.62 6.48 310.81 7.95 309.34 9.08 307.87 10.2 305.76 10.88 303.67 11.55 301.06 11.55ZM300.72-9.4L300.72-9.4Q301.97-9.4 303.09-9.88 304.22-10.35 305.06-11.25 305.92-12.15 306.42-13.4 306.92-14.65 306.92-16.15L306.92-16.15Q306.92-17.65 306.42-18.9 305.92-20.15 305.09-21 304.26-21.85 303.12-22.33 301.97-22.8 300.72-22.8L300.72-22.8Q299.42-22.8 298.29-22.33 297.17-21.85 296.31-21 295.47-20.15 294.97-18.93 294.47-17.7 294.47-16.15L294.47-16.15Q294.47-14.65 294.97-13.4 295.47-12.15 296.34-11.25 297.22-10.35 298.34-9.88 299.47-9.4 300.72-9.4ZM301.31 9.75L301.31 9.75Q303.31 9.75 304.97 9.22 306.62 8.7 307.76 7.85 308.92 7 309.54 5.93 310.17 4.85 310.17 3.7L310.17 3.7Q310.17 1.7 308.74 0.88 307.31 0.05 304.62 0.05L304.62 0.05 299.47 0.05Q299.06 0.05 298.24-0.03 297.42-0.1 296.47-0.35L296.47-0.35Q294.81 0.8 294.06 2.1 293.31 3.4 293.31 4.7L293.31 4.7Q293.31 6.95 295.39 8.35 297.47 9.75 301.31 9.75ZM319.76 0L317.56 0 317.56-24 319.46-24 319.66-19.55 319.81-19.55Q321.01-21.8 322.74-23.2 324.46-24.6 326.61-24.6L326.61-24.6Q327.31-24.6 327.86-24.5 328.41-24.4 329.01-24.1L329.01-24.1 328.51-22.1Q327.91-22.35 327.46-22.43 327.01-22.5 326.31-22.5L326.31-22.5Q324.71-22.5 322.94-21.13 321.16-19.75 319.76-16.35L319.76-16.35 319.76 0ZM341.66 0.6L341.66 0.6Q339.51 0.6 337.56-0.25 335.61-1.1 334.14-2.7 332.66-4.3 331.79-6.63 330.91-8.95 330.91-11.95L330.91-11.95Q330.91-14.95 331.79-17.32 332.66-19.7 334.14-21.3 335.61-22.9 337.56-23.75 339.51-24.6 341.66-24.6L341.66-24.6Q343.81-24.6 345.79-23.75 347.76-22.9 349.24-21.3 350.71-19.7 351.59-17.32 352.46-14.95 352.46-11.95L352.46-11.95Q352.46-8.95 351.59-6.63 350.71-4.3 349.24-2.7 347.76-1.1 345.79-0.25 343.81 0.6 341.66 0.6ZM341.66-1.35L341.66-1.35Q343.46-1.35 345.04-2.13 346.61-2.9 347.74-4.3 348.86-5.7 349.51-7.65 350.16-9.6 350.16-11.95L350.16-11.95Q350.16-14.35 349.51-16.3 348.86-18.25 347.74-19.68 346.61-21.1 345.04-21.88 343.46-22.65 341.66-22.65L341.66-22.65Q339.86-22.65 338.31-21.88 336.76-21.1 335.64-19.68 334.51-18.25 333.86-16.3 333.21-14.35 333.21-11.95L333.21-11.95Q333.21-9.6 333.86-7.65 334.51-5.7 335.64-4.3 336.76-2.9 338.31-2.13 339.86-1.35 341.66-1.35ZM366.56 0.6L366.56 0.6Q362.81 0.6 361.06-1.65 359.31-3.9 359.31-8.6L359.31-8.6 359.31-24 361.51-24 361.51-8.9Q361.51-5.05 362.78-3.23 364.06-1.4 366.96-1.4L366.96-1.4Q369.11-1.4 370.86-2.58 372.61-3.75 374.71-6.3L374.71-6.3 374.71-24 376.91-24 376.91 0 375.06 0 374.81-4 374.71-4Q372.96-1.9 371.01-0.65 369.06 0.6 366.56 0.6ZM388.31 0L386.11 0 386.11-24 388.01-24 388.21-20.3 388.36-20.3Q390.21-22.15 392.16-23.38 394.11-24.6 396.61-24.6L396.61-24.6Q400.36-24.6 402.11-22.35 403.86-20.1 403.86-15.4L403.86-15.4 403.86 0 401.66 0 401.66-15.1Q401.66-18.95 400.38-20.78 399.11-22.6 396.16-22.6L396.16-22.6Q394.01-22.6 392.26-21.48 390.51-20.35 388.31-18.1L388.31-18.1 388.31 0ZM420.65 0.6L420.65 0.6Q416.1 0.6 413.4-2.63 410.7-5.85 410.7-11.95L410.7-11.95Q410.7-14.85 411.55-17.2 412.4-19.55 413.88-21.2 415.35-22.85 417.28-23.73 419.2-24.6 421.35-24.6L421.35-24.6Q423.55-24.6 425.18-23.83 426.8-23.05 428.6-21.65L428.6-21.65 428.5-26.05 428.5-35.95 430.7-35.95 430.7 0 428.8 0 428.6-3.1 428.45-3.1Q427-1.65 425.03-0.53 423.05 0.6 420.65 0.6ZM420.95-1.35L420.95-1.35Q422.95-1.35 424.78-2.38 426.6-3.4 428.5-5.3L428.5-5.3 428.5-19.55Q426.6-21.25 424.93-21.95 423.25-22.65 421.5-22.65L421.5-22.65Q419.7-22.65 418.15-21.83 416.6-21 415.48-19.58 414.35-18.15 413.7-16.18 413.05-14.2 413.05-11.95L413.05-11.95Q413.05-9.55 413.58-7.6 414.1-5.65 415.1-4.28 416.1-2.9 417.58-2.13 419.05-1.35 420.95-1.35ZM440.8 0.6L440.8 0.6Q439.95 0.6 439.3 0 438.65-0.6 438.65-1.65L438.65-1.65Q438.65-2.75 439.3-3.35 439.95-3.95 440.8-3.95L440.8-3.95Q441.65-3.95 442.28-3.35 442.9-2.75 442.9-1.65L442.9-1.65Q442.9-0.6 442.28 0 441.65 0.6 440.8 0.6Z" opacity="1" transform="matrix(1,0,0,1,0,0)" fill="#000000" class="slogan-text-1" data-fill-palette-color="secondary" id="text-1"></path></svg></g></svg></g></svg></g></svg></g><g transform="matrix(1,0,0,1,0,0.20102734855245785)"><svg viewBox="0 0 76.76912797460828 80.41093942098468" height="80.41093942098468" width="76.76912797460828"><g><svg version="1.0" xmlns="http://www.w3.org/2000/svg" xmlns:xlink="http://www.w3.org/1999/xlink" x="0" y="0" viewBox="0 0 95.471 100" enable-background="new 0 0 95.471 100" xml:space="preserve" id="icon-0" width="76.76912797460828" height="80.41093942098468" class="icon-icon-0" data-fill-palette-color="accent"><path d="M47.735 0C47.652 2.825 45.997 13.412 27.936 30.934 10.554 47.797 2.439 49.824 0 50 2.439 50.178 10.554 52.204 27.936 69.066 45.997 86.589 47.652 97.177 47.735 100 47.818 97.177 49.474 86.589 67.533 69.066 84.917 52.204 93.031 50.178 95.471 50 93.032 49.824 84.917 47.797 67.533 30.934 49.475 13.412 47.819 2.825 47.735 0" fill="#000000" data-fill-palette-color="accent"></path></svg></g></svg></g></svg></g><defs></defs></svg><rect width="395.52" height="64.24256652196367" fill="none" stroke="none" visibility="hidden"></rect></g></svg></g></svg>